<?xml version="1.0" encoding="UTF-8"?>
<svg version="1.1" xmlns="http://www.w3.org/2000/svg" width="980" height="980">
<path d="M0 0 C323.4 0 646.8 0 980 0 C980 323.4 980 646.8 980 980 C656.6 980 333.2 980 0 980 C0 656.6 0 333.2 0 0 Z " fill="#FEFEFE" transform="translate(0,0)"/>
<path d="M0 0 C1.9855957 1.36962891 1.9855957 1.36962891 3.86328125 3.1015625 C4.55115723 3.73481445 5.2390332 4.36806641 5.94775391 5.02050781 C17.11778631 15.79455287 26.86514663 27.47677996 36 40 C36.77537109 41.04607422 36.77537109 41.04607422 37.56640625 42.11328125 C48.49505007 56.87653693 57.12479675 72.67616757 65.11816406 89.18310547 C65.940964 90.87836491 66.77851918 92.56644077 67.6171875 94.25390625 C70.98157069 101.21800514 73.57164383 108.2867488 75.90869141 115.64599609 C76.95277202 118.92749684 78.01433971 122.03126211 79.453125 125.16796875 C81.95156053 130.81632446 83.11781293 136.95680621 84.5625 142.9375 C84.86607422 144.17435547 85.16964844 145.41121094 85.48242188 146.68554688 C86.06832586 149.07383961 86.65082921 151.46296985 87.22949219 153.85302734 C87.85326936 156.40071041 88.50703158 158.93662643 89.17578125 161.47265625 C89.96567775 164.8531138 90.38914782 168.04083465 90.625 171.5 C90.73714844 173.06234375 90.73714844 173.06234375 90.8515625 174.65625 C90.90054687 175.4296875 90.94953125 176.203125 91 177 C88.93224275 176.01666655 87.01951337 175.01347158 85.1328125 173.7109375 C78.3659214 169.20845354 71.93350426 169.30841183 64 170 C62.65674545 170.29078531 61.31595832 170.60358786 60 171 C60.53109375 171.95519531 61.0621875 172.91039062 61.609375 173.89453125 C65.33559729 180.68261744 68.72862547 187.30346769 71.2109375 194.6640625 C72.28966051 197.85750983 73.66603476 200.90520063 75 204 C90.21987266 240.32400837 95.27986786 278.39182615 95.25 317.5 C95.24940582 318.36802246 95.24881165 319.23604492 95.24819946 320.13037109 C95.2416675 322.61830883 95.2252212 325.1059053 95.203125 327.59375 C95.19653114 328.69184998 95.19653114 328.69184998 95.18980408 329.81213379 C95.12477747 334.61032875 94.66657199 339.24716805 94 344 C93.34 344 92.68 344 92 344 C90.484375 342.09375 90.484375 342.09375 88.75 339.5 C88.11964844 338.57832031 87.48929688 337.65664063 86.83984375 336.70703125 C86.23269531 335.81371094 85.62554688 334.92039062 85 334 C79.50165804 326.02662092 72.84214878 318.84214878 66 312 C65.98018066 312.78947021 65.96036133 313.57894043 65.93994141 314.39233398 C64.99457763 350.26653887 61.43060428 386.99068041 38 416 C36.96939453 417.34964844 36.96939453 417.34964844 35.91796875 418.7265625 C21.89490595 436.66597617 3.20282148 449.30615323 -19 455 C-21.8515625 455.10546875 -21.8515625 455.10546875 -24 455 C-23.319375 454.34 -22.63875 453.68 -21.9375 453 C-10.62064663 441.61938971 -3.30477294 430.6812567 0.1875 415 C0.36474609 414.22527344 0.54199219 413.45054687 0.72460938 412.65234375 C1.1546759 410.76934979 1.578055 408.88483046 2 407 C0.97003906 407.68964844 -0.05992187 408.37929688 -1.12109375 409.08984375 C-23.48808887 423.91623923 -46.84689638 435.54663822 -73.40625 440.51220703 C-75.80023899 440.96243199 -78.17953405 441.46023405 -80.5625 441.96484375 C-103.80012358 446.50397139 -130.14485575 446.00886422 -153 440 C-153 439.34 -153 438.68 -153 438 C-152.38253906 437.78085937 -151.76507812 437.56171875 -151.12890625 437.3359375 C-140.12288594 433.21496186 -130.61133968 426.91700951 -124 417 C-124.64614258 417.13857422 -125.29228516 417.27714844 -125.95800781 417.41992188 C-145.64079815 421.35507953 -169.88476046 421.32345857 -187.9296875 411.38671875 C-188.61289062 410.92910156 -189.29609375 410.47148438 -190 410 C-191.68264279 409.28811267 -193.36547617 408.57665531 -195.05078125 407.87109375 C-219.37024909 397.00287466 -237.52950508 374.99488419 -248 351 C-248 350.34 -248 349.68 -248 349 C-246.70304199 349.0314209 -246.70304199 349.0314209 -245.37988281 349.06347656 C-228.44722152 349.41877012 -212.49520515 349.44101677 -196 345 C-198.85418638 343.09720908 -201.38242436 341.99383663 -204.5625 340.75 C-213.937088 336.86930413 -221.2850677 332.11158911 -228.67578125 325.1484375 C-230.99773985 322.94424959 -230.99773985 322.94424959 -233.65234375 320.91796875 C-237.3157949 317.92503279 -239.51116534 314.46650399 -241 310 C-241.66 310 -242.32 310 -243 310 C-243 309.34 -243 308.68 -243 308 C-242.34773437 307.96261719 -241.69546875 307.92523437 -241.0234375 307.88671875 C-235.77863741 307.49219839 -231.44447921 307.07694715 -227 304 C-225.89062387 302.26764785 -225.89062387 302.26764785 -226 300 C-227.44511267 297.80979805 -228.8756255 295.92436143 -230.5625 293.9375 C-243.44875434 277.98598132 -249.6777954 260.44977845 -248 240 C-245.75866786 225.81435354 -238.81279937 209.4229597 -230 198 C-229.34 198 -228.68 198 -228 198 C-227.78085937 199.01578125 -227.56171875 200.0315625 -227.3359375 201.078125 C-224.53719474 213.45659893 -220.29313441 224.19728582 -212 234 C-211.29617188 234.83660156 -210.59234375 235.67320312 -209.8671875 236.53515625 C-205.57430983 241.4756036 -201.39313895 245.32807561 -196 249 C-196 249.66 -196 250.32 -196 251 C-195.30003906 251.25136719 -194.60007812 251.50273438 -193.87890625 251.76171875 C-190.64626853 253.15214773 -187.89007351 254.89899821 -184.9375 256.8125 C-178.87796921 260.63303287 -172.7276761 263.50727539 -166 266 C-165.08089844 266.36996094 -164.16179687 266.73992187 -163.21484375 267.12109375 C-141.76889257 275.17438766 -115.66134078 274.40083304 -94.84765625 265.40625 C-90.62319677 263.32009717 -86.79159117 260.78624502 -83 258 C-84.0415625 257.98582031 -85.083125 257.97164062 -86.15625 257.95703125 C-99.7830199 257.57730821 -112.01428955 254.74196213 -124 248 C-124 247.01 -124 246.02 -124 245 C-123.030625 244.67128906 -122.06125 244.34257813 -121.0625 244.00390625 C-101.54936041 237.17197358 -86.38085801 228.56430812 -76 210 C-75.66726074 209.41621582 -75.33452148 208.83243164 -74.99169922 208.23095703 C-72.15597925 202.97742655 -70.80261734 197.85430496 -69.75 192 C-69.58161621 191.08226807 -69.41323242 190.16453613 -69.23974609 189.21899414 C-67.12912771 176.91774565 -67.40076596 165.25353189 -70 153 C-64.13843607 154.58420647 -56.37339097 157.62660903 -52 162 C-52.57402764 148.25203797 -59.17738122 136.5162603 -69 127 C-72.19199165 124.4191247 -75.52874668 122.1863715 -79 120 C-80.10988281 119.24589844 -80.10988281 119.24589844 -81.2421875 118.4765625 C-94.45666765 110.28791742 -112.58830953 106.04551984 -128.0234375 105.68359375 C-129.14270126 105.6524221 -129.14270126 105.6524221 -130.28457642 105.62062073 C-132.64796508 105.5556877 -135.01145664 105.49650429 -137.375 105.4375 C-138.98568735 105.39426116 -140.59636463 105.35064523 -142.20703125 105.30664062 C-146.13791771 105.20006474 -150.06890677 105.09864208 -154 105 C-151.98125612 101.51421421 -150.19359697 99.04814801 -147.0625 96.5 C-144.76334237 94.56386726 -142.88509412 92.85636765 -141 90.5 C-137.18845327 85.73556659 -132.58653081 81.53139677 -127 79 C-127 78.34 -127 77.68 -127 77 C-125.7421875 75.6953125 -125.7421875 75.6953125 -123.875 74.125 C-123.14023437 73.50109375 -122.40546875 72.8771875 -121.6484375 72.234375 C-120.77445313 71.49703125 -119.90046875 70.7596875 -119 70 C-117.97016519 69.11075009 -116.94159172 68.22003802 -115.9140625 67.328125 C-112.29748135 64.19329637 -108.65131506 61.0942399 -105 58 C-104.38624512 57.47599609 -103.77249023 56.95199219 -103.14013672 56.41210938 C-80.10837035 36.82756151 -54.13715785 22.00048224 -26.796875 9.31689453 C-24.0123837 8.0058308 -21.25451165 6.65014724 -18.5 5.27734375 C-17.2018335 4.63768677 -17.2018335 4.63768677 -15.87744141 3.98510742 C-14.25485834 3.18426374 -12.63698192 2.37378405 -11.02490234 1.55200195 C-9.94136475 1.02352661 -9.94136475 1.02352661 -8.8359375 0.484375 C-8.21251465 0.17209961 -7.5890918 -0.14017578 -6.94677734 -0.46191406 C-4.27907865 -1.19926143 -2.62817511 -0.82638628 0 0 Z " fill="#030303" transform="translate(796,376)"/>
<path d="M0 0 C5.73480791 1.66300857 10.82872213 4.61585298 16.015625 7.51171875 C22.32464097 10.99330706 28.86895716 13.9987273 35.37963867 17.07983398 C38.08824006 18.36194729 40.79469311 19.64845176 43.5 20.9375 C44.19303223 21.26435791 44.88606445 21.59121582 45.60009766 21.92797852 C51.30827581 24.68700331 56.63439985 28.0070659 62 31.375 C62.89847656 31.93509766 63.79695312 32.49519531 64.72265625 33.07226562 C66.48394972 34.17083076 68.24314133 35.27277442 70 36.37841797 C71.63595943 37.39865595 73.28158171 38.40359951 74.9375 39.39111328 C75.6696875 39.83052246 76.401875 40.26993164 77.15625 40.72265625 C77.80400391 41.10429932 78.45175781 41.48594238 79.11914062 41.87915039 C79.80266602 42.40303345 79.80266602 42.40303345 80.5 42.9375 C80.5 43.5975 80.5 44.2575 80.5 44.9375 C81.3815979 45.35612305 81.3815979 45.35612305 82.28100586 45.78320312 C85.81633977 47.62224578 88.8845022 50.04616856 92.0625 52.4375 C92.77341797 52.97141357 93.48433594 53.50532715 94.21679688 54.05541992 C100.31420294 58.69112848 105.91529252 63.69490208 111.5 68.9375 C112.7442249 70.02746124 113.99390946 71.11123439 115.25 72.1875 C119.92380768 76.2445578 124.41251459 80.50077391 128.9206543 84.73974609 C133.00986901 88.57713535 137.15674775 92.31508607 141.47265625 95.8984375 C144.51756221 98.96094408 146.9722711 102.44419863 149.5 105.9375 C147.80810547 105.99695801 147.80810547 105.99695801 146.08203125 106.05761719 C141.81693917 106.2120714 137.55300968 106.38909606 133.2890625 106.57226562 C131.45857017 106.64789521 129.62782819 106.71774873 127.796875 106.78125 C112.76133761 107.30881272 98.65811923 108.97389591 84.875 115.4375 C84.23433594 115.71980469 83.59367188 116.00210938 82.93359375 116.29296875 C79.83476747 117.69346079 76.96063164 119.23434888 74.1640625 121.15625 C71.5 122.9375 71.5 122.9375 69.5 122.9375 C69.5 123.5975 69.5 124.2575 69.5 124.9375 C67.9609375 126.19921875 67.9609375 126.19921875 65.875 127.625 C53.71876353 136.47370923 49.3682209 148.66388306 46.5 162.9375 C47.29664063 162.44378906 48.09328125 161.95007813 48.9140625 161.44140625 C49.97367188 160.80074219 51.03328125 160.16007813 52.125 159.5 C53.16914063 158.86191406 54.21328125 158.22382812 55.2890625 157.56640625 C58.48948445 155.94283453 60.9824232 155.43786349 64.5 154.9375 C64.47905273 155.91396484 64.45810547 156.89042969 64.43652344 157.89648438 C64.36282644 161.60156946 64.31774172 165.30659359 64.28027344 169.01220703 C64.26044732 170.60053481 64.23337779 172.18879259 64.19824219 173.77685547 C63.74676577 194.74395154 68.39380253 211.07942316 83.14453125 226.71875 C91.29892553 234.39983781 100.78127949 238.95726617 111.08984375 242.98828125 C114.25801464 244.23603737 117.3775497 245.57991291 120.5 246.9375 C112.27511326 256.18377791 96.85395987 257.88857894 85.1875 258.625 C82.95886207 258.73992471 80.72980613 258.84806103 78.5 258.9375 C91.54438417 268.52314594 106.26713852 273.53559475 122.4375 273.375 C123.52216553 273.36742676 124.60683105 273.35985352 125.72436523 273.35205078 C153.70145239 272.79008891 180.05300997 262.19050521 200.5 242.9375 C202.25318035 240.99130897 203.86948966 238.98878721 205.5 236.9375 C206.16 236.9375 206.82 236.9375 207.5 236.9375 C207.75007813 236.40511719 208.00015625 235.87273437 208.2578125 235.32421875 C209.80293028 232.35545472 211.58457459 229.57752089 213.375 226.75 C218.62521185 218.29080004 221.93528025 210.79935211 223.5 200.9375 C224.49 200.9375 225.48 200.9375 226.5 200.9375 C238.64876973 221.48241948 247.41198203 241.95665161 242.22924805 266.33911133 C241.00418398 270.70414543 238.98975691 274.54168287 236.8125 278.5 C236.36769287 279.32701416 235.92288574 280.15402832 235.46459961 281.00610352 C232.30273406 286.76991498 228.82173576 291.97380879 224.5 296.9375 C222.1127738 299.63948304 222.1127738 299.63948304 221.5 303 C223.04191544 305.98746117 224.37030714 306.623029 227.5 307.9375 C231.15892705 308.47270171 234.80818029 308.74999952 238.5 308.9375 C236.87759353 312.84432936 234.22251289 315.69765082 231.375 318.75 C230.8785498 319.28334961 230.38209961 319.81669922 229.87060547 320.36621094 C218.38311801 332.57746578 205.7247759 340.54328986 189.5 344.9375 C202.09092171 349.60080434 213.92310445 350.20974326 227.1875 350.0625 C228.77538495 350.05244496 230.3632761 350.0433236 231.95117188 350.03515625 C235.80093725 350.01335443 239.65039827 349.97896559 243.5 349.9375 C239.241821 363.10059871 231.48190774 376.32175475 221.5 385.9375 C220.97277344 386.49953125 220.44554687 387.0615625 219.90234375 387.640625 C202.04485666 406.49813137 175.04752446 419.33474947 149.04296875 420.25 C131.48551031 420.52683538 131.48551031 420.52683538 123.5 417.9375 C122.18 417.9375 120.86 417.9375 119.5 417.9375 C119.5 418.5975 119.5 419.2575 119.5 419.9375 C120.16 419.9375 120.82 419.9375 121.5 419.9375 C122.14388672 421.03384766 122.14388672 421.03384766 122.80078125 422.15234375 C127.46761347 429.80165725 137.07927706 436.22229809 145.72265625 438.53125 C146.30917969 438.6653125 146.89570313 438.799375 147.5 438.9375 C147.5 439.5975 147.5 440.2575 147.5 440.9375 C133.8251642 444.14171069 120.91060499 445.63775138 106.875 445.5 C105.96811432 445.49673706 105.06122864 445.49347412 104.12686157 445.4901123 C88.78691396 445.41001078 74.36405539 443.9555325 59.5 439.9375 C58.78134766 439.75106934 58.06269531 439.56463867 57.32226562 439.37255859 C51.18761021 437.75648892 45.39448174 435.61817621 39.65625 432.92578125 C37.40486766 431.89389768 35.12617373 431.0076515 32.8125 430.125 C20.85898482 425.35837416 10.15276134 419.07010382 -0.5 411.9375 C-1.63526544 411.18076267 -2.77067574 410.42424259 -3.90625 409.66796875 C-4.7621875 409.09691406 -5.618125 408.52585937 -6.5 407.9375 C-5.82191514 415.24421033 -4.06748981 421.634685 -1.125 428.3125 C-0.83294678 428.97765625 -0.54089355 429.6428125 -0.23999023 430.328125 C2.76839773 436.91532898 6.63974552 442.30129719 11.5625 447.625 C12.41972656 448.55699219 13.27695313 449.48898437 14.16015625 450.44921875 C15.9122389 452.31245188 17.67404134 454.14746184 19.5 455.9375 C-0.85919117 455.84169204 -19.14616488 442.40197646 -32.86230469 428.59912109 C-33.40274414 428.05078613 -33.94318359 427.50245117 -34.5 426.9375 C-35.37914062 426.05707031 -36.25828125 425.17664063 -37.1640625 424.26953125 C-46.88890572 414.0266981 -52.87567803 401.72393324 -58.5 388.9375 C-58.99757812 387.88304687 -59.49515625 386.82859375 -60.0078125 385.7421875 C-69.67754912 363.00292493 -69.89916914 337.18810817 -70.5 312.9375 C-79.8215286 322.06572501 -90.59866378 333.13482756 -96.5 344.9375 C-97.16 344.9375 -97.82 344.9375 -98.5 344.9375 C-99.29114279 339.34662611 -99.65896698 333.92787073 -99.66796875 328.28515625 C-99.67211288 327.47558472 -99.67625702 326.66601318 -99.68052673 325.83190918 C-99.69014914 323.22122593 -99.69019178 320.61069816 -99.6875 318 C-99.68756042 317.11021454 -99.68762085 316.22042908 -99.68768311 315.30368042 C-99.65397879 280.47419179 -99.65397879 280.47419179 -95.95947266 264.91430664 C-95.37920346 262.41779246 -94.99529575 259.91039236 -94.625 257.375 C-93.38106335 249.7774177 -91.49167706 242.36617226 -89.5 234.9375 C-89.27795898 234.10444336 -89.05591797 233.27138672 -88.82714844 232.41308594 C-83.09005193 211.08245064 -74.47053596 191.61308428 -64.5 171.9375 C-71.16161586 169.88777204 -80.24744315 169.54192778 -86.6875 172.375 C-87.615625 172.890625 -88.54375 173.40625 -89.5 173.9375 C-90.49 174.2675 -91.48 174.5975 -92.5 174.9375 C-92.83 175.9275 -93.16 176.9175 -93.5 177.9375 C-94.16 177.6075 -94.82 177.2775 -95.5 176.9375 C-91.81988493 151.20826846 -85.21861493 127.03771239 -75.5 102.9375 C-75.11884033 101.97432861 -74.73768066 101.01115723 -74.3449707 100.01879883 C-71.32547958 92.54298052 -67.78802788 85.45500288 -63.9375 78.375 C-63.32326172 77.24384766 -62.70902344 76.11269531 -62.07617188 74.94726562 C-50.63350599 54.08122784 -37.5396533 34.9799709 -21.1171875 17.703125 C-18.9084405 15.36910578 -16.78043427 12.99960569 -14.6875 10.5625 C-14.15125 9.95921875 -13.615 9.3559375 -13.0625 8.734375 C-11.95974345 7.46620496 -10.90061665 6.15945431 -9.875 4.828125 C-6.84199265 1.20536623 -4.86580716 -0.6836258 0 0 Z " fill="#030303" transform="translate(188.5,375.0625)"/>
<path d="M0 0 C2.22366281 2.05732271 3.66199244 3.95598948 5.015625 6.66015625 C5.37567627 7.36599854 5.73572754 8.07184082 6.10668945 8.79907227 C6.48398193 9.54600342 6.86127441 10.29293457 7.25 11.0625 C10.73109476 17.77288355 14.43593672 23.95932801 19 30 C19.89437864 31.22181566 20.78750194 32.44455076 21.6796875 33.66796875 C30.82978338 46.13779639 40.75847526 57.70134372 51.3125 69 C51.97024414 69.70632568 52.62798828 70.41265137 53.30566406 71.14038086 C56.86781487 74.91357875 60.51375833 78.43451617 64.51318359 81.74291992 C66.81236386 83.68684097 68.87159395 85.87159395 71 88 C76.23632403 92.96850498 81.45933677 97.4657872 87.53515625 101.36328125 C97.87824577 108.23135496 107.083075 116.40115794 116 125 C116.55751953 125.53560547 117.11503906 126.07121094 117.68945312 126.62304688 C124.16898328 132.87940148 130.22303022 139.2468239 135.8203125 146.3203125 C138.12899314 149.15858297 140.56830584 151.82385854 143.0625 154.5 C147.09227634 158.87802862 150.60335896 163.42877395 154.02734375 168.2890625 C155.9517558 170.93370004 157.99810887 173.39166855 160.125 175.875 C176.83702084 196.08555807 189.01501755 219.75017312 199.93847656 243.45263672 C202.86017154 249.76587114 205.90855626 256.0172209 208.94665527 262.27496338 C213.37679755 271.40175551 217.76086768 280.537352 221.875 289.8125 C224.93596276 296.7024164 228.14701166 303.4785944 231.5703125 310.1953125 C233.27727133 313.54789334 234.94644108 316.91775299 236.60116577 320.29641724 C237.9009149 322.94870414 239.20750074 325.59760133 240.51434326 328.24639893 C241.16011598 329.55909822 241.80316448 330.873142 242.44317627 332.18865967 C246.69095765 340.91229685 251.42047695 349.04062532 257 357 C258.17591006 358.71996402 259.35169645 360.44001261 260.52734375 362.16015625 C266.04981029 370.1267196 271.57400093 377.98292483 277.82421875 385.3984375 C280.47419836 388.5669948 283.02839074 391.8009744 285.5625 395.0625 C286.0049707 395.62380615 286.44744141 396.1851123 286.90332031 396.76342773 C290 400.76628719 290 400.76628719 290 403 C290.53109375 403.20109375 291.0621875 403.4021875 291.609375 403.609375 C295.05332918 405.6127209 297.50760929 408.38776905 300.25 411.25 C308.88719452 420.51752479 308.88719452 420.51752479 320 426 C329.5571118 425.78279291 336.89659288 418.69122964 343.125 412.1875 C343.78886719 411.51396484 344.45273437 410.84042969 345.13671875 410.14648438 C350.83643227 404.31849941 356.35629908 398.29163058 361.3125 391.8125 C361.89257812 391.05582031 362.47265625 390.29914063 363.0703125 389.51953125 C364.02550781 388.27236328 364.02550781 388.27236328 365 387 C365.73992187 386.05511719 366.47984375 385.11023438 367.2421875 384.13671875 C372.67010592 377.1740694 377.84574434 370.07056689 382.8894043 362.82421875 C384.84342126 360.02230683 386.75538741 357.28618706 388.9765625 354.6875 C395.69865691 345.75931283 400.1538284 334.84818728 405.13085938 324.86865234 C406.36291659 322.39921899 407.59919508 319.93193334 408.8359375 317.46484375 C414.77751886 305.58672104 420.66095099 293.66403177 426 281.5 C427.96349185 277.03591763 430.00692883 272.60975581 432.0625 268.1875 C432.57393555 267.07375 432.57393555 267.07375 433.09570312 265.9375 C434.79598372 262.29830294 436.54822121 259.19495253 439 256 C439.7182504 254.37601473 440.38409988 252.72799658 441 251.0625 C442.39231734 247.43931057 444.00329172 244.32784713 446 241 C446.6157768 239.49557137 447.21090042 237.98263261 447.79296875 236.46484375 C449.8778864 231.19212412 452.26436071 226.12523745 454.8125 221.0625 C455.25190918 220.18787109 455.69131836 219.31324219 456.14404297 218.41210938 C459.40182379 212.00843352 462.95039663 205.9381655 467 200 C467.56589844 199.1234375 468.13179687 198.246875 468.71484375 197.34375 C477.2299128 184.23810462 486.56505923 171.58931777 496.703125 159.6953125 C499.70547175 156.1721505 502.6031596 152.56790215 505.50390625 148.9609375 C519.21988338 132.69065477 534.37543958 116.10119391 552 104 C552.86367188 103.39929688 553.72734375 102.79859375 554.6171875 102.1796875 C556.26681115 101.03368727 557.91654758 99.88784936 559.56640625 98.7421875 C579.34963419 84.57955562 597.19549773 66.24585295 612 47 C612.89150857 45.87493652 613.78487098 44.75134055 614.6796875 43.62890625 C623.46720869 32.58905827 631.14792676 21.34233277 638 9 C638.53367187 8.04480469 639.06734375 7.08960938 639.6171875 6.10546875 C640.75014067 4.073194 641.87828897 2.03849408 643 0 C643.33 0 643.66 0 644 0 C644.6813046 13.5882418 642.82982373 26.50047358 640.53076172 39.87768555 C640.17412186 41.97569252 639.83221023 44.07625155 639.50439453 46.17895508 C638.59037382 51.99499396 637.44341234 57.46248494 635.625 63.0625 C635.40948486 63.73152344 635.19396973 64.40054688 634.97192383 65.08984375 C633.12187661 70.77684942 631.12059995 76.4082504 629 82 C647.33420251 72.28534549 663.23024462 58.1813927 678.48828125 44.265625 C679.89592152 42.99590283 681.31048417 41.73342487 682.7487793 40.49853516 C688.14424911 35.85932713 693.18462079 30.93239507 698.1875 25.875 C699.35829102 24.69744141 699.35829102 24.69744141 700.55273438 23.49609375 C702.04578267 21.99418088 703.53786757 20.49130945 705.02880859 18.98730469 C707.34579097 16.6513824 709.67120011 14.32413296 712 12 C711.17331861 18.49188031 709.51871797 24.457262 707.65966797 30.71630859 C706.92876426 33.2466096 706.24667356 35.78766067 705.56640625 38.33203125 C696.83607788 70.38365346 682.99091504 100.67334517 660 125 C658.99453125 126.08474609 658.99453125 126.08474609 657.96875 127.19140625 C653.41702633 131.95084746 648.64868763 135.62723991 643 139 C642.12085938 139.52722656 641.24171875 140.05445313 640.3359375 140.59765625 C633.75128537 144.37223853 626.74693462 148 619 148 C625.67567896 155.35456156 635.60377126 159.3030934 645 162 C646.64875661 162.51150402 648.2946605 163.03229902 649.9375 163.5625 C650.66839844 163.79066406 651.39929688 164.01882813 652.15234375 164.25390625 C654 165 654 165 656 167 C648.14022074 170.65256348 640.18449067 174.04429942 632.17880249 177.36148071 C619.49461578 182.62305343 606.94217637 188.11247426 594.47265625 193.86669922 C590.39267007 195.73669288 586.2909854 197.55728253 582.1875 199.375 C581.48842529 199.68477783 580.78935059 199.99455566 580.0690918 200.3137207 C579.40047119 200.60980225 578.73185059 200.90588379 578.04296875 201.2109375 C577.39062256 201.50000977 576.73827637 201.78908203 576.06616211 202.08691406 C574.57075043 202.74777188 573.07399352 203.40558841 571.57641602 204.06152344 C570.77260498 204.41504883 569.96879395 204.76857422 569.140625 205.1328125 C568.4074707 205.4539502 567.67431641 205.77508789 566.91894531 206.10595703 C564.86810729 207.01653122 564.86810729 207.01653122 562.5625 208.5 C560.2786996 209.83685877 558.20584714 210.72391478 555.7421875 211.65625 C548.83430586 214.39174871 542.20187057 217.67823197 535.5625 221 C534.90447388 221.32881165 534.24644775 221.65762329 533.56848145 221.99639893 C518.26421743 229.67544728 503.13390526 237.700847 491 250 C488.59022084 252.41740504 486.18081579 254.82751531 483.7109375 257.18359375 C477.25408754 263.41369814 471.77065995 270.10369895 466.34814453 277.23291016 C465.05445817 278.92861857 463.74708278 280.61257205 462.43359375 282.29296875 C442.81677709 307.44146029 425.6166497 334.61813064 410.94921875 362.9375 C402.89497331 378.4744122 392.80883373 392.26909311 382 406 C381.2059375 407.010625 380.411875 408.02125 379.59375 409.0625 C374.99089681 414.79938949 370.11163609 420.23435373 365.07202148 425.58691406 C363.01064881 427.78142205 361.04365462 429.93985144 359.2734375 432.37890625 C358.64308594 433.18134766 358.64308594 433.18134766 358 434 C357.34 434 356.68 434 356 434 C355.34 435.32 354.68 436.64 354 438 C353.34 438 352.68 438 352 438 C352 438.66 352 439.32 352 440 C347.52952585 444.76202681 341.97744856 448.67949975 336.875 452.75 C336.28960449 453.22171631 335.70420898 453.69343262 335.10107422 454.17944336 C326.30294234 461.11809961 326.30294234 461.11809961 321.5625 460.875 C314.94347773 458.61484605 310.36363579 456.02554315 305.1875 451.375 C304.58365479 450.84447021 303.97980957 450.31394043 303.35766602 449.76733398 C301.56378895 448.18696276 299.78108865 446.59475469 298 445 C297.02546875 444.13761719 296.0509375 443.27523438 295.046875 442.38671875 C268.24364999 418.51258869 243.87866602 386.82196458 228.24755859 354.42700195 C221.0327105 339.6965388 212.11608469 325.62540918 203 312 C202.58572754 311.37996094 202.17145508 310.75992187 201.74462891 310.12109375 C191.92029198 295.484614 181.46886636 281.39045772 170 268 C169.44441406 267.33226562 168.88882813 266.66453125 168.31640625 265.9765625 C157.29235997 252.94564495 145.1949604 242.04049202 130.41015625 233.44140625 C127.97503358 231.9850687 125.64894698 230.42152525 123.3125 228.8125 C119.68520433 226.3624845 116.07488362 224.62995345 112 223 C110.1531214 222.0765607 108.30674637 221.15207494 106.46484375 220.21875 C102.7167389 218.36548738 98.92213638 216.61299154 95.12963867 214.85302734 C91.63669947 213.23153525 88.14931493 211.5998254 84.671875 209.9453125 C78.43291863 206.98020169 72.21623175 204.03475822 65.8125 201.4375 C61.44033364 199.66354726 57.26225851 197.65075739 53.0625 195.5 C47.4738423 192.65632318 41.84324624 190.29873586 35.96875 188.1171875 C30.46601271 186.04642057 25.16905718 183.61411065 19.9375 180.9375 C16.68993212 179.28477734 13.40554266 178.00566912 9.98046875 176.7734375 C8.00964569 176.00376696 6.18566345 175.10674185 4.3125 174.125 C-1.24650094 171.25080713 -7.14279087 169.17859608 -13 167 C-12.67 166.34 -12.34 165.68 -12 165 C-10.32860539 164.55872764 -8.63543355 164.19950412 -6.9375 163.875 C0.67682071 162.10105432 7.17661915 158.66700146 14.03320312 155.03173828 C17.32960884 153.30251652 20.66621146 151.65578164 24 150 C20.88733173 148.41678974 17.75017837 147.09247616 14.5 145.8125 C3.43929967 141.19714694 -5.41874299 135.33892916 -14 127 C-14.71414062 126.35933594 -15.42828125 125.71867187 -16.1640625 125.05859375 C-23.45760735 118.28222754 -28.93814725 110.09000388 -34.60888672 101.96362305 C-35.57250275 100.60343285 -36.56797471 99.26546712 -37.58764648 97.94677734 C-39.1714097 95.76373017 -40.15120615 93.49175676 -41.16943359 91.00341797 C-42.07837796 88.8109437 -43.05731625 86.65936643 -44.05078125 84.50390625 C-52.47844729 66.12302 -59.28696739 47.46202394 -64.8125 28 C-65.13669922 26.89527344 -65.46089844 25.79054687 -65.79492188 24.65234375 C-66.09591797 23.59144531 -66.39691406 22.53054687 -66.70703125 21.4375 C-66.9800708 20.48746094 -67.25311035 19.53742188 -67.53442383 18.55859375 C-68.00865709 15.9524246 -67.86534065 14.47344113 -67 12 C-66.319375 12.7528125 -65.63875 13.505625 -64.9375 14.28125 C-59.01517148 20.78749933 -52.96259735 27.14485294 -46.75 33.375 C-45.77740234 34.35436523 -45.77740234 34.35436523 -44.78515625 35.35351562 C-40.92144215 39.205474 -36.94205138 42.86746461 -32.8125 46.43261719 C-30.54526108 48.39324137 -28.3360443 50.41389717 -26.125 52.4375 C-18.4045741 59.37655349 -10.24828601 65.6252859 -1.875 71.75 C-1.12283203 72.30526367 -0.37066406 72.86052734 0.40429688 73.43261719 C5.09095242 76.82746452 9.75515144 79.55002539 15 82 C14.80365967 81.45174561 14.60731934 80.90349121 14.4050293 80.33862305 C13.49496065 77.78973551 12.59121996 75.23864508 11.6875 72.6875 C11.37876953 71.82576172 11.07003906 70.96402344 10.75195312 70.07617188 C6.73122826 58.691172 4.26677878 47.54931219 2.63745117 35.61328125 C2.31472994 33.26621777 1.97350366 30.9223523 1.63085938 28.578125 C0.27313521 18.97753517 -0.29872357 9.69909689 0 0 Z " fill="#040404" transform="translate(168,151)"/>
<path d="M0 0 C1.09035427 0.00040031 1.09035427 0.00040031 2.2027359 0.00080872 C7.07537113 0.00362732 11.9477438 0.02100004 16.8203125 0.046875 C18.07900146 0.05126587 19.33769043 0.05565674 20.63452148 0.06018066 C21.7942749 0.06964722 22.95402832 0.07911377 24.14892578 0.08886719 C25.66910812 0.09910919 25.66910812 0.09910919 27.22000122 0.10955811 C29.61492896 0.23624298 31.5716967 0.63992793 33.875 1.25 C35.42854719 1.4042604 36.98615697 1.52024602 38.54492188 1.60717773 C39.92786438 1.68747475 39.92786438 1.68747475 41.33874512 1.76939392 C42.33039673 1.82357986 43.32204834 1.87776581 44.34375 1.93359375 C46.46354967 2.05780626 48.58334107 2.18215982 50.703125 2.30664062 C54.02917158 2.49753145 57.35531212 2.68639961 60.68164062 2.87231445 C63.90269448 3.0537992 67.12320581 3.24330618 70.34375 3.43359375 C71.80693665 3.51183632 71.80693665 3.51183632 73.29968262 3.59165955 C79.30059596 3.95078153 85.12174443 4.71220237 91.04107666 5.75746155 C95.01604367 6.44831443 99.00552764 6.96556254 103.0078125 7.46875 C104.65495593 7.68092735 106.30209111 7.89316883 107.94921875 8.10546875 C110.48080621 8.42909943 113.01253204 8.75158965 115.54443359 9.07275391 C126.68430777 10.48969602 137.60446929 12.08777121 148.5 14.875 C149.52351563 15.13539063 150.54703125 15.39578125 151.6015625 15.6640625 C152.72691406 15.95410156 152.72691406 15.95410156 153.875 16.25 C153.22422349 19.74231577 151.82059283 22.2047506 149.91796875 25.1875 C149.30606689 26.15461914 148.69416504 27.12173828 148.0637207 28.11816406 C147.07311646 29.66842285 147.07311646 29.66842285 146.0625 31.25 C144.68347479 33.43139397 143.30588995 35.61369911 141.9296875 37.796875 C141.24229492 38.88677734 140.55490234 39.97667969 139.84667969 41.09960938 C135.57525041 47.9245875 131.47454138 54.85184769 127.35742188 61.77050781 C125.79591188 64.38228243 124.21993338 66.98489019 122.640625 69.5859375 C122.1046167 70.47120117 121.5686084 71.35646484 121.01635742 72.26855469 C120.00375048 73.9402095 118.98851953 75.61027927 117.9699707 77.27832031 C115.08824148 82.04828645 112.50331184 86.89227094 110.05200195 91.89648438 C109.01470026 93.97065744 107.9232002 95.98515624 106.76953125 97.99609375 C101.1988626 107.79909248 97.17707865 117.92230694 93.41333008 128.54467773 C90.89834846 135.63235321 88.09423683 142.45452683 84.875 149.25 C84.46846191 150.12720703 84.06192383 151.00441406 83.64306641 151.90820312 C75.03074608 170.46824487 65.41083364 188.35445688 55.0625 206 C54.54768066 206.88051025 54.03286133 207.76102051 53.50244141 208.66821289 C49.9029012 214.73731253 45.9872072 220.5179093 41.875 226.25 C40.82699219 227.73306641 40.82699219 227.73306641 39.7578125 229.24609375 C29.16618707 243.95668463 18.35737535 258.00881232 1.875 266.25 C-4.47786344 266.86136343 -7.2899627 264.48691298 -12.16796875 260.75 C-17.13723741 256.5487689 -21.62895062 251.95110568 -26.125 247.25 C-26.61766357 246.76740723 -27.11032715 246.28481445 -27.61791992 245.78759766 C-42.64454861 230.45668765 -53.63989851 209.62775355 -63.72363281 190.85400391 C-65.37480954 187.78580686 -67.04309453 184.72713698 -68.7109375 181.66796875 C-69.97460396 179.3414964 -71.23762689 177.01467439 -72.5 174.6875 C-73.09554687 173.59276367 -73.69109375 172.49802734 -74.3046875 171.37011719 C-77.17289 166.05253494 -79.91041738 160.75066634 -82.25097656 155.17822266 C-83.19991612 153.08472415 -84.31442644 151.15538232 -85.5 149.1875 C-89.96551772 141.30477208 -92.72060887 132.43439238 -95.60546875 123.87109375 C-102.80436263 102.88645462 -114.10516126 83.7743065 -125.55175781 64.86132812 C-127.09025894 62.30766455 -128.60696271 59.7423433 -130.1171875 57.171875 C-135.95668125 47.26915936 -142.08370079 37.62443859 -148.58178711 28.13842773 C-149.14518799 27.31028564 -149.70858887 26.48214355 -150.2890625 25.62890625 C-150.78873535 24.9026001 -151.2884082 24.17629395 -151.80322266 23.42797852 C-153.21016537 21.10966749 -154.18633262 18.78997264 -155.125 16.25 C-153.16713128 15.78968604 -151.20867448 15.33187326 -149.25 14.875 C-148.15945313 14.61976563 -147.06890625 14.36453125 -145.9453125 14.1015625 C-122.37823946 8.84837035 -98.31575048 6.01435093 -74.32458496 3.48431396 C-72.19251885 3.25719254 -70.06158507 3.02128691 -67.93066406 2.78369141 C-45.30736682 0.30030637 -22.73445625 -0.01842179 0 0 Z " fill="#020202" transform="translate(490.125,267.75)"/>
<path d="M0 0 C4.28828304 1.87125078 7.4830398 4.44038749 11.0078125 7.4921875 C13.3737182 9.55344139 13.3737182 9.55344139 16.0390625 11.0390625 C19.19150844 12.95928202 21.11050462 15.30683962 23.453125 18.12109375 C24.90121176 19.85708752 26.39808572 21.55271737 27.921875 23.22265625 C28.75203125 24.15980469 29.5821875 25.09695313 30.4375 26.0625 C31.613125 27.36380859 31.613125 27.36380859 32.8125 28.69140625 C34.98706127 32.44984268 34.45914973 34.34437068 33.4375 38.5 C32.86528425 40.47440208 32.24088188 42.43451231 31.5625 44.375 C31.02302734 45.93927734 31.02302734 45.93927734 30.47265625 47.53515625 C30.13105469 48.51355469 29.78945313 49.49195313 29.4375 50.5 C28.95533647 51.93649757 28.4759021 53.37391593 28 54.8125 C27.12013415 57.46636564 26.22621001 60.11399252 25.31640625 62.7578125 C22.96938117 69.64534404 20.80518554 76.54601474 18.875 83.5625 C18.66633301 84.32038818 18.45766602 85.07827637 18.24267578 85.85913086 C17.28143765 89.36919798 16.33588809 92.88275645 15.41015625 96.40234375 C13.69092227 102.76143809 11.74015177 108.5202864 8.5859375 114.31640625 C7.36722285 116.52572006 7.36722285 116.52572006 6.453125 119.1015625 C5.09767864 122.30250121 2.96916668 124.16820174 0.4375 126.5 C-3.69006679 124.97127156 -6.18536375 122.08482652 -8.5625 118.5 C-10.01817427 115.30545728 -11.11038519 112.02605723 -12.1875 108.6875 C-12.47367187 107.83607422 -12.75984375 106.98464844 -13.0546875 106.10742188 C-13.62643556 104.40127369 -14.19165629 102.69292388 -14.75024414 100.98242188 C-15.51590875 98.6423925 -16.30535455 96.31158051 -17.09765625 93.98046875 C-18.67946797 89.23763868 -20.03154377 84.4397723 -21.375 79.625 C-25.24762134 65.94003462 -29.17131817 52.29407493 -34.6796875 39.1640625 C-35.63069433 36.29421003 -36.0162077 34.49163517 -35.5625 31.5 C-30.66702149 23.80203742 -23.43894396 16.49251543 -16.5625 10.5 C-15.9025 10.5 -15.2425 10.5 -14.5625 10.5 C-14.5625 9.84 -14.5625 9.18 -14.5625 8.5 C-10.25494521 4.55075899 -5.8718215 0.8241153 0 0 Z " fill="#040404" transform="translate(490.5625,649.5)"/>
<path d="M0 0 C0.94746094 -0.020625 1.89492188 -0.04125 2.87109375 -0.0625 C9.63843076 -0.09953057 17.62411752 0.13002633 23.0703125 4.66015625 C25.12529456 7.1642811 25.93632923 9.95907622 27 13 C27.42539062 14.19109375 27.85078125 15.3821875 28.2890625 16.609375 C32.58810889 31.02200533 31.52990795 47.191538 24.9375 60.6875 C16.10276636 75.87357201 0.67288947 88.90438485 -16.0078125 94.35546875 C-30.51101002 97.87389822 -46.52953667 98.05074507 -59.8125 90.5625 C-61.43804533 89.49005555 -63.0429506 88.38562952 -64.625 87.25 C-65.38554688 86.72019531 -66.14609375 86.19039062 -66.9296875 85.64453125 C-74.98735055 79.32944239 -79.132971 70.234058 -83.625 61.25 C-83.94400957 50.47203365 -77.46720174 42.00749627 -70.625 34.25 C-68.69384398 32.43318874 -66.74379344 30.85201455 -64.625 29.25 C-64.59921875 29.86746094 -64.5734375 30.48492188 -64.546875 31.12109375 C-63.83346616 41.77358488 -59.72061318 50.63887531 -51.8125 57.9375 C-45.31427604 63.42946913 -38.27687415 65.67637864 -29.80859375 65.59765625 C-21.6363179 64.70522367 -13.20362006 61.37287568 -7.625 55.25 C-3.303019 49.29550318 -0.39235055 43.59796286 0.375 36.25 C0.48070312 35.2496875 0.58640625 34.249375 0.6953125 33.21875 C1.16423764 24.65576926 -0.66481537 18.27442308 -5.625 11.25 C-7.93021923 8.89230423 -10.27130462 6.80388054 -12.8671875 4.7734375 C-13.44726562 4.27070312 -14.02734375 3.76796875 -14.625 3.25 C-14.625 2.59 -14.625 1.93 -14.625 1.25 C-9.78597119 -0.13974123 -5.00041869 0.02656265 0 0 Z " fill="#060606" transform="translate(674.625,512.75)"/>
<path d="M0 0 C1.28970703 0.0009668 1.28970703 0.0009668 2.60546875 0.00195312 C7.86027205 0.0378357 12.92478922 0.43340911 18.125 1.1875 C18.125 1.8475 18.125 2.5075 18.125 3.1875 C17.114375 3.80625 16.10375 4.425 15.0625 5.0625 C9.30223743 8.98088635 5.28049476 15.98630806 3.44921875 22.64453125 C1.90529896 34.75407079 3.23074948 44.06017319 10.375 54 C15.41669509 60.09743465 21.31073305 63.70548385 29.125 65.1875 C39.15558425 65.9732291 47.14243889 64.82906615 54.98046875 58.25390625 C62.05267914 51.43933558 65.87075173 45.12825559 67.25 35.375 C67.41757812 34.21355469 67.58515625 33.05210937 67.7578125 31.85546875 C67.93957031 30.53482422 67.93957031 30.53482422 68.125 29.1875 C76.4355207 35.42039052 83.78660346 44.23651032 87.125 54.1875 C88.08646639 62.79379674 82.07883533 71.63053215 77.375 78.5625 C69.58129395 88.16582645 57.29658795 94.4386071 45.125 96.1875 C35.32202251 96.78678265 25.2496872 97.25198499 16.125 93.1875 C14.90490234 92.65962891 14.90490234 92.65962891 13.66015625 92.12109375 C-3.233167 84.23407226 -17.02213932 71.21446923 -24.25390625 53.8828125 C-29.12598333 39.18170188 -28.38702534 22.72218385 -21.9375 8.625 C-19.74988113 4.63775504 -17.55446463 2.89423124 -13.359375 1.12890625 C-8.83359577 -0.09386594 -4.663453 -0.06582883 0 0 Z " fill="#060606" transform="translate(301.875,512.8125)"/>
<path d="M0 0 C1 3 1 3 1 6 C-0.32 6.33 -1.64 6.66 -3 7 C-2.67 7.66 -2.34 8.32 -2 9 C-1.01 9.33 -0.02 9.66 1 10 C1.33 10.99 1.66 11.98 2 13 C0.10751181 13.67610423 -1.7891602 14.34050439 -3.6875 15 C-5.27111328 15.556875 -5.27111328 15.556875 -6.88671875 16.125 C-9.78362056 16.9391857 -12.01700623 17.17709796 -15 17 C-14.319375 16.34 -13.63875 15.68 -12.9375 15 C-8.2599741 10.3224741 -3.91723984 5.32982027 0 0 Z " fill="#191919" transform="translate(787,814)"/>
<path d="M0 0 C2.68125418 2.38246339 4.11423459 4.8545504 5.6875 8.0625 C6.12449219 8.94035156 6.56148437 9.81820312 7.01171875 10.72265625 C8 13 8 13 8 15 C5.525 14.01 5.525 14.01 3 13 C2.67 15.97 2.34 18.94 2 22 C1.67 22 1.34 22 1 22 C0.16788724 16.96145894 -0.1078534 12.1874338 -0.0625 7.0625 C-0.05798828 6.37865234 -0.05347656 5.69480469 -0.04882812 4.99023438 C-0.0371956 3.32678396 -0.01926694 1.6633795 0 0 Z " fill="#292929" transform="translate(168,151)"/>
<path d="M0 0 C0.33 0.66 0.66 1.32 1 2 C-1.50095155 7.27597998 -5.05754079 11.62423664 -9.58203125 15.27734375 C-11.0799536 16.48760888 -12.5425481 17.74129154 -14 19 C-14 19.66 -14 20.32 -14 21 C-16.49064888 21.68707555 -18.37886292 22 -21 22 C-20.07058594 21.16597656 -19.14117188 20.33195313 -18.18359375 19.47265625 C-11.49193431 13.4035398 -5.14842689 7.49038048 0 0 Z " fill="#D3D3D3" transform="translate(834,791)"/>
<path d="M0 0 C-0.95117134 1.1725131 -1.91117009 2.33787015 -2.875 3.5 C-3.40867187 4.1496875 -3.94234375 4.799375 -4.4921875 5.46875 C-5.23855469 6.22671875 -5.23855469 6.22671875 -6 7 C-6.66 7 -7.32 7 -8 7 C-8.33 4.36 -8.66 1.72 -9 -1 C-5.38055101 -2.34053666 -3.42632833 -1.61798838 0 0 Z " fill="#0F0F0F" transform="translate(825,802)"/>
<path d="M0 0 C-0.99 1.98 -1.98 3.96 -3 6 C-6.85645121 6.22036864 -9.49223216 5.60355101 -13 4 C-12 2 -12 2 -9.78515625 1.11328125 C-8.88667969 0.84902344 -7.98820312 0.58476563 -7.0625 0.3125 C-6.16660156 0.04050781 -5.27070313 -0.23148438 -4.34765625 -0.51171875 C-2 -1 -2 -1 0 0 Z " fill="#E2E2E2" transform="translate(390,717)"/>
<path d="M0 0 C2.58926331 2.58926331 2.37398043 4.02705279 2.625 7.625 C2.69976563 8.62789062 2.77453125 9.63078125 2.8515625 10.6640625 C2.92503906 11.82035156 2.92503906 11.82035156 3 13 C-0.465 11.02 -0.465 11.02 -4 9 C-3.34 8.67 -2.68 8.34 -2 8 C-1.60828247 6.34608154 -1.27942455 4.67654729 -1 3 C-0.67 2.01 -0.34 1.02 0 0 Z " fill="#D4D4D4" transform="translate(742,526)"/>
<path d="M0 0 C1.13888672 0.10828125 1.13888672 0.10828125 2.30078125 0.21875 C3.29464844 0.3115625 4.28851563 0.404375 5.3125 0.5 C6.79169922 0.63921875 6.79169922 0.63921875 8.30078125 0.78125 C11.04702139 1.04038857 11.04702139 1.04038857 14 1 C16.1875 3 16.1875 3 18 5 C11.44074057 4.61020794 6.05473373 3.57886807 0 1 C0 0.67 0 0.34 0 0 Z " fill="#333333" transform="translate(190,826)"/>
<path d="M0 0 C0.66 0.99 1.32 1.98 2 3 C1.01 3.33 0.02 3.66 -1 4 C-1.73323796 6.01508358 -1.73323796 6.01508358 -2 8 C-2.66 8 -3.32 8 -4 8 C-4 8.66 -4 9.32 -4 10 C-5.98 10.33 -7.96 10.66 -10 11 C-6.79239749 7.19364503 -3.59253891 3.45436433 0 0 Z " fill="#0D0D0D" transform="translate(513,561)"/>
<path d="M0 0 C2.97 0.99 5.94 1.98 9 3 C6.16671013 5.83328987 4.64553172 6.7191375 1 8 C0.40267181 5.23735711 0 2.83967231 0 0 Z " fill="#E5E5E5" transform="translate(184,297)"/>
<path d="M0 0 C3.08089673 2.77280706 4.68775452 5.06326356 6 9 C4.68 9.33 3.36 9.66 2 10 C1.67 8.68 1.34 7.36 1 6 C0.01 6.33 -0.98 6.66 -2 7 C-1.67 6.21625 -1.34 5.4325 -1 4.625 C0.11866511 2.15667503 0.11866511 2.15667503 0 0 Z " fill="#1D1D1D" transform="translate(338,342)"/>
<path d="M0 0 C0.66 0.99 1.32 1.98 2 3 C1.54625 3.391875 1.0925 3.78375 0.625 4.1875 C-1.1549251 5.92218846 -1.1549251 5.92218846 -1.75 8.375 C-3.55348327 12.16231486 -6.51656854 13.81121285 -10 16 C-10.66 15.67 -11.32 15.34 -12 15 C-11.13375 14.38125 -10.2675 13.7625 -9.375 13.125 C-5.06288283 9.58290376 -2.64611031 4.83243549 0 0 Z " fill="#2D2D2D" transform="translate(673,558)"/>
<path d="M0 0 C0 3.96130371 -1.34877125 4.82914401 -4 7.6875 C-4.7425 8.49574219 -5.485 9.30398438 -6.25 10.13671875 C-6.8275 10.75160156 -7.405 11.36648438 -8 12 C-9.32 11.34 -10.64 10.68 -12 10 C-11.30132812 9.44570313 -10.60265625 8.89140625 -9.8828125 8.3203125 C-8.97273438 7.59585938 -8.06265625 6.87140625 -7.125 6.125 C-6.22007812 5.40570312 -5.31515625 4.68640625 -4.3828125 3.9453125 C-1.99734824 2.06439526 -1.99734824 2.06439526 0 0 Z " fill="#D3D3D3" transform="translate(415,698)"/>
<path d="M0 0 C8.184375 1.81875 8.184375 1.81875 10.8125 5.625 C11.204375 6.40875 11.59625 7.1925 12 8 C7.1725201 6.58707905 3.2837641 4.57025846 -1 2 C-0.67 1.34 -0.34 0.68 0 0 Z " fill="#CCCCCC" transform="translate(614,633)"/>
<path d="M0 0 C0.99 0.33 1.98 0.66 3 1 C1.4169423 5.2742558 -1.50568404 7.26531794 -5 10 C-5.66 9.34 -6.32 8.68 -7 8 C-5.625 6.5 -5.625 6.5 -4 5 C-3.34 5 -2.68 5 -2 5 C-1.34 3.35 -0.68 1.7 0 0 Z " fill="#0F0F0F" transform="translate(509,516)"/>
<path d="M0 0 C2.96404505 2.80804268 5.44499019 5.18315774 7 9 C5.02 9 3.04 9 1 9 C-1.09230769 4.56923077 -1.09230769 4.56923077 -0.625 1.6875 C-0.41875 1.130625 -0.2125 0.57375 0 0 Z " fill="#E5E5E5" transform="translate(561,750)"/>
<path d="M0 0 C0.66 0.33 1.32 0.66 2 1 C2 1.66 2 2.32 2 3 C0.35546875 4.62109375 0.35546875 4.62109375 -1.8125 6.4375 C-4.31102718 8.54463676 -6.7242056 10.65241398 -9 13 C-9.66 12.67 -10.32 12.34 -11 12 C-7.37 8.04 -3.74 4.08 0 0 Z " fill="#373737" transform="translate(686,286)"/>
<path d="M0 0 C2.64752004 2.57784846 4.94432065 4.91648098 7 8 C6.34 8.66 5.68 9.32 5 10 C4.01 10 3.02 10 2 10 C0.68373308 6.38026598 0 3.90432869 0 0 Z " fill="#2E2E2E" transform="translate(100,163)"/>
<path d="M0 0 C0 4.64285714 0 4.64285714 -1 7 C-4.17471352 9.39867244 -7.43927271 11.254394 -11 13 C-7.61227103 8.30840284 -4.21814817 3.9700218 0 0 Z " fill="#D2D2D2" transform="translate(542,566)"/>
<path d="M0 0 C2.43840236 2.43840236 3.62292893 4.85240898 5 8 C4.67 8.66 4.34 9.32 4 10 C1.525 9.01 1.525 9.01 -1 8 C-0.67 7.01 -0.34 6.02 0 5 C-0.66 5 -1.32 5 -2 5 C-1.34 3.35 -0.68 1.7 0 0 Z " fill="#222222" transform="translate(859,554)"/>
<path d="M0 0 C3.96 1.98 3.96 1.98 8 4 C7.01 4.99 6.02 5.98 5 7 C3 6 1 5 -1 4 C-0.67 2.68 -0.34 1.36 0 0 Z " fill="#111111" transform="translate(278,608)"/>
<path d="M0 0 C0 3.62941351 -0.64760255 4.32313393 -3 7 C-4.64639965 8.35827971 -6.31295807 9.69254251 -8 11 C-9.0173873 11.98230498 -10.02596117 12.97469597 -11 14 C-11.66 13.67 -12.32 13.34 -13 13 C-8.71 8.71 -4.42 4.42 0 0 Z " fill="#242424" transform="translate(700,272)"/>
<path d="M0 0 C0.66 0.33 1.32 0.66 2 1 C-2.75 6.875 -2.75 6.875 -5 8 C-5.33 8.66 -5.66 9.32 -6 10 C-7.64363134 10.72159424 -9.31050386 11.39351421 -11 12 C-7.49102731 7.81576108 -3.91939465 3.80411834 0 0 Z " fill="#161616" transform="translate(761,220)"/>
<path d="M0 0 C0.66 0.33 1.32 0.66 2 1 C0.1875 3.5 0.1875 3.5 -2 6 C-5.10551666 6 -6.35261084 5.4606285 -9 4 C-7.54618103 3.30300448 -6.08677047 2.61766134 -4.625 1.9375 C-3.40683594 1.36322266 -3.40683594 1.36322266 -2.1640625 0.77734375 C-1.44992187 0.52082031 -0.73578125 0.26429688 0 0 Z " fill="#D6D6D6" transform="translate(377,784)"/>
<path d="M0 0 C0.66 1.32 1.32 2.64 2 4 C1.34 4 0.68 4 0 4 C-0.2475 4.5775 -0.495 5.155 -0.75 5.75 C-2.16683317 8.3002997 -3.87627537 10.01785701 -6 12 C-6.66 11.67 -7.32 11.34 -8 11 C-5.36 7.37 -2.72 3.74 0 0 Z " fill="#DCDCDC" transform="translate(531,494)"/>
<path d="M0 0 C0.33 0.99 0.66 1.98 1 3 C-0.40445835 5.2636564 -2.1967913 7.0208685 -4 9 C-5.32 8.34 -6.64 7.68 -8 7 C-5.36 4.69 -2.72 2.38 0 0 Z " fill="#1B1B1B" transform="translate(689,436)"/>
<path d="M0 0 C0.66 0.33 1.32 0.66 2 1 C0.69063102 3.92090003 -0.75619462 5.75619462 -3 8 C-3.33 8.99 -3.66 9.98 -4 11 C-6.0625 11.6875 -6.0625 11.6875 -8 12 C-6.85573734 10.186508 -5.70954608 8.37423275 -4.5625 6.5625 C-3.60537109 5.04849609 -3.60537109 5.04849609 -2.62890625 3.50390625 C-1 1 -1 1 0 0 Z " fill="#272727" transform="translate(654,324)"/>
<path d="M0 0 C-1.7015625 0.680625 -1.7015625 0.680625 -3.4375 1.375 C-7.04721692 2.57095806 -7.04721692 2.57095806 -8 5 C-6.68 5 -5.36 5 -4 5 C-3.67 5.99 -3.34 6.98 -3 8 C-5.875 7.25 -5.875 7.25 -9 6 C-10.1953125 3.921875 -10.1953125 3.921875 -11 2 C-9.54494642 1.47007308 -8.08581873 0.9513211 -6.625 0.4375 C-5.81289063 0.14746094 -5.00078125 -0.14257812 -4.1640625 -0.44140625 C-2 -1 -2 -1 0 0 Z " fill="#B6B6B6" transform="translate(798,297)"/>
<path d="M0 0 C0.99 0.33 1.98 0.66 3 1 C3.33 1.99 3.66 2.98 4 4 C2.59554165 6.2636564 0.8032087 8.0208685 -1 10 C-2.1875 8.3125 -2.1875 8.3125 -3 6 C-1.625 3.3125 -1.625 3.3125 0 1 C0 0.67 0 0.34 0 0 Z " fill="#111111" transform="translate(644,408)"/>
<path d="M0 0 C-0.33 0.99 -0.66 1.98 -1 3 C-3.0625 3.6875 -3.0625 3.6875 -5 4 C-5 4.66 -5 5.32 -5 6 C-7.31 6.33 -9.62 6.66 -12 7 C-9.20232475 3.70861735 -4.40323273 0 0 0 Z " fill="#232323" transform="translate(744,399)"/>
<path d="M0 0 C0 3.74268873 -0.71340327 5.04955261 -3 8 C-5.29087486 9.28798076 -7.50954833 10.10719657 -10 11 C-8.55218207 7.55571735 -6.72305391 5.63869038 -3.875 3.25 C-3.15054688 2.63640625 -2.42609375 2.0228125 -1.6796875 1.390625 C-0.84824219 0.70226562 -0.84824219 0.70226562 0 0 Z " fill="#DDDDDD" transform="translate(826,277)"/>
<path d="M0 0 C0.33 0 0.66 0 1 0 C1 5.61 1 11.22 1 17 C0.67 17 0.34 17 0 17 C-0.33 13.7 -0.66 10.4 -1 7 C-1.66 7 -2.32 7 -3 7 C-1.125 1.125 -1.125 1.125 0 0 Z " fill="#4E4E4E" transform="translate(811,151)"/>
<path d="M0 0 C0 3 0 3 -1.9375 5 C-2.618125 5.66 -3.29875 6.32 -4 7 C-4.33 7.99 -4.66 8.98 -5 10 C-7.97 9.505 -7.97 9.505 -11 9 C-9.948125 8.1646875 -9.948125 8.1646875 -8.875 7.3125 C-5.88655739 4.90875268 -2.94059762 2.46189568 0 0 Z " fill="#D9D9D9" transform="translate(374,595)"/>
<path d="M0 0 C0.66 0 1.32 0 2 0 C2 0.66 2 1.32 2 2 C2.66 2 3.32 2 4 2 C4.33 1.34 4.66 0.68 5 0 C5.12375 0.763125 5.2475 1.52625 5.375 2.3125 C5.88102792 5.20267136 5.88102792 5.20267136 8 8 C5 8 5 8 2.3125 5.6875 C0 3 0 3 0 0 Z " fill="#0F0F0F" transform="translate(466,514)"/>
<path d="M0 0 C0.66 0.33 1.32 0.66 2 1 C-2.75 5 -2.75 5 -5 5 C-6.62514468 6.45833358 -6.62514468 6.45833358 -8 8 C-8.33 7.34 -8.66 6.68 -9 6 C-9.66 5.67 -10.32 5.34 -11 5 C-10.37351562 4.72285156 -9.74703125 4.44570313 -9.1015625 4.16015625 C-8.28429687 3.79792969 -7.46703125 3.43570312 -6.625 3.0625 C-5.81289063 2.70285156 -5.00078125 2.34320313 -4.1640625 1.97265625 C-2.76316215 1.3430097 -1.37374716 0.68687358 0 0 Z " fill="#D0D0D0" transform="translate(731,358)"/>
<path d="M0 0 C1.2065625 0.0309375 1.2065625 0.0309375 2.4375 0.0625 C0.4575 2.3725 -1.5225 4.6825 -3.5625 7.0625 C-4.2225 6.7325 -4.8825 6.4025 -5.5625 6.0625 C-3.26136364 0.07954545 -3.26136364 0.07954545 0 0 Z " fill="#EDEDED" transform="translate(871.5625,168.9375)"/>
<path d="M0 0 C0 0.99 0 1.98 0 3 C-0.99 3.495 -0.99 3.495 -2 4 C-1.67 4.66 -1.34 5.32 -1 6 C-3.3125 7.125 -3.3125 7.125 -6 8 C-6.99 7.34 -7.98 6.68 -9 6 C-6.03 4.02 -3.06 2.04 0 0 Z M-7 8 C-6.67 8.66 -6.34 9.32 -6 10 C-6.66 9.67 -7.32 9.34 -8 9 C-7.67 8.67 -7.34 8.34 -7 8 Z " fill="#212121" transform="translate(661,805)"/>
<path d="M0 0 C2.97 0 5.94 0 9 0 C7.21844267 3.56311466 5.83236991 5.35645475 3 8 C2.67 6.68 2.34 5.36 2 4 C2.66 4 3.32 4 4 4 C4.33 3.01 4.66 2.02 5 1 C3.35 1 1.7 1 0 1 C0 0.67 0 0.34 0 0 Z " fill="#313131" transform="translate(418,684)"/>
<path d="M0 0 C0 0.66 0 1.32 0 2 C-4.62197306 4.21854707 -7.76824163 5.38281159 -13 5 C-10.54278328 3.36185552 -8.65432189 2.38047801 -5.9375 1.375 C-5.24527344 1.11460937 -4.55304687 0.85421875 -3.83984375 0.5859375 C-2 0 -2 0 0 0 Z M-9 5 C-8.34 5.33 -7.68 5.66 -7 6 C-8.32 6.33 -9.64 6.66 -11 7 C-10.34 6.34 -9.68 5.68 -9 5 Z " fill="#353535" transform="translate(661,574)"/>
<path d="M0 0 C0.66 0.99 1.32 1.98 2 3 C2.99 2.67 3.98 2.34 5 2 C5.66 2.66 6.32 3.32 7 4 C6.195625 4.268125 5.39125 4.53625 4.5625 4.8125 C3.716875 5.204375 2.87125 5.59625 2 6 C1.67 6.99 1.34 7.98 1 9 C0.34 8.67 -0.32 8.34 -1 8 C-0.67 5.36 -0.34 2.72 0 0 Z " fill="#2A2A2A" transform="translate(94,544)"/>
<path d="M0 0 C1.32 1.32 2.64 2.64 4 4 C3.01 4 2.02 4 1 4 C1 8.95 1 13.9 1 19 C0.67 19 0.34 19 0 19 C0 12.73 0 6.46 0 0 Z " fill="#D9D9D9" transform="translate(861,687)"/>
<path d="M0 0 C-0.66 1.32 -1.32 2.64 -2 4 C-4.31 3.34 -6.62 2.68 -9 2 C-8.67 1.34 -8.34 0.68 -8 0 C-4.71585695 -0.95067299 -3.30306592 -1.10102197 0 0 Z " fill="#2C2C2C" transform="translate(164,316)"/>
<path d="M0 0 C3.14027363 0.33645789 4.05098295 1.05236086 6.3125 3.375 C6.869375 4.24125 7.42625 5.1075 8 6 C7.67 6.99 7.34 7.98 7 9 C5.82737096 7.88121617 4.66204862 6.75476949 3.5 5.625 C2.8503125 4.99851562 2.200625 4.37203125 1.53125 3.7265625 C0 2 0 2 0 0 Z " fill="#101010" transform="translate(146,268)"/>
<path d="M0 0 C0.99 0.66 1.98 1.32 3 2 C1.7260411 4.03833424 0.38938077 6.03852126 -1 8 C-1.66 8 -2.32 8 -3 8 C-3.1875 5.125 -3.1875 5.125 -3 2 C-2.01 1.34 -1.02 0.68 0 0 Z " fill="#2F2F2F" transform="translate(93,712)"/>
<path d="M0 0 C0.66 0.99 1.32 1.98 2 3 C-0.97 5.475 -0.97 5.475 -4 8 C-4.66 7.34 -5.32 6.68 -6 6 C-4.71034824 4.62437146 -3.37310707 3.29233607 -2 2 C-1.34 2 -0.68 2 0 2 C0 1.34 0 0.68 0 0 Z " fill="#EAEAEA" transform="translate(468,662)"/>
<path d="M0 0 C0.66 0.66 1.32 1.32 2 2 C-0.31 3.65 -2.62 5.3 -5 7 C-5.66 6.01 -6.32 5.02 -7 4 C-4.83450189 1.83450189 -3.8751666 1.64923117 -1 1 C-0.67 0.67 -0.34 0.34 0 0 Z " fill="#E3E3E3" transform="translate(503,568)"/>
<path d="M0 0 C2.31 0.66 4.62 1.32 7 2 C3.375 5 3.375 5 0 5 C0 4.34 0 3.68 0 3 C-0.66 2.67 -1.32 2.34 -2 2 C-1.34 2 -0.68 2 0 2 C0 1.34 0 0.68 0 0 Z " fill="#181818" transform="translate(817,315)"/>
<path d="M0 0 C0.99 0 1.98 0 3 0 C3.12375 0.53625 3.2475 1.0725 3.375 1.625 C4.12206016 4.4638286 5.05303364 7.22223202 6 10 C5.34 10 4.68 10 4 10 C2.67578125 8.3203125 2.67578125 8.3203125 1.3125 6.125 C0.85488281 5.40570313 0.39726562 4.68640625 -0.07421875 3.9453125 C-0.37972656 3.30335938 -0.68523437 2.66140625 -1 2 C-0.67 1.34 -0.34 0.68 0 0 Z " fill="#141414" transform="translate(345,297)"/>
<path d="M0 0 C1 3 1 3 1 6 C-0.98 6.66 -2.96 7.32 -5 8 C-1.125 1.125 -1.125 1.125 0 0 Z " fill="#2A2A2A" transform="translate(787,814)"/>
<path d="M0 0 C3.96 1.98 3.96 1.98 8 4 C7.67 4.66 7.34 5.32 7 6 C3.31245243 5.50168276 1.39509338 4.89932357 -1 2 C-0.67 1.34 -0.34 0.68 0 0 Z " fill="#E7E7E7" transform="translate(198,793)"/>
<path d="M0 0 C0.33 0.99 0.66 1.98 1 3 C1.66 3 2.32 3 3 3 C3 3.66 3 4.32 3 5 C2.34 5 1.68 5 1 5 C0.34 6.32 -0.32 7.64 -1 9 C-1.66 9 -2.32 9 -3 9 C-2.01 6.03 -1.02 3.06 0 0 Z " fill="#262626" transform="translate(556,592)"/>
<path d="M0 0 C0 3 0 3 -2.375 5.5625 C-3.24125 6.366875 -4.1075 7.17125 -5 8 C-5.66 8.66 -6.32 9.32 -7 10 C-7.99 9.67 -8.98 9.34 -10 9 C-6.7 6.03 -3.4 3.06 0 0 Z " fill="#2D2D2D" transform="translate(665,457)"/>
<path d="M0 0 C1.485 0.99 1.485 0.99 3 2 C2.67 4.31 2.34 6.62 2 9 C1.34 8.67 0.68 8.34 0 8 C-1.27536232 2.55072464 -1.27536232 2.55072464 0 0 Z " fill="#1C1C1C" transform="translate(409,419)"/>
<path d="M0 0 C0.66 0.66 1.32 1.32 2 2 C0.02 3.32 -1.96 4.64 -4 6 C-5.32 5.34 -6.64 4.68 -8 4 C-5.32521756 2.3372974 -3.0004856 1.00016187 0 0 Z " fill="#EBEBEB" transform="translate(723,408)"/>
<path d="M0 0 C0.928125 0.20625 1.85625 0.4125 2.8125 0.625 C2.8125 1.285 2.8125 1.945 2.8125 2.625 C0.1725 2.955 -2.4675 3.285 -5.1875 3.625 C-5.5175 2.965 -5.8475 2.305 -6.1875 1.625 C-3.1875 -0.375 -3.1875 -0.375 0 0 Z " fill="#1A1A1A" transform="translate(333.1875,813.375)"/>
<path d="M0 0 C0.33 0.99 0.66 1.98 1 3 C-0.75 5.0625 -0.75 5.0625 -3 7 C-4.32 6.67 -5.64 6.34 -7 6 C-4.69 4.02 -2.38 2.04 0 0 Z " fill="#D3D3D3" transform="translate(513,596)"/>
<path d="M0 0 C2 2 2 2 2 5 C0.35 5.66 -1.3 6.32 -3 7 C-3.66 6.34 -4.32 5.68 -5 5 C-3.35 3.35 -1.7 1.7 0 0 Z " fill="#D7D7D7" transform="translate(689,586)"/>
<path d="M0 0 C2.97 0.495 2.97 0.495 6 1 C4.35 2.98 2.7 4.96 1 7 C0.31292445 4.50935112 0 2.62113708 0 0 Z " fill="#DFDFDF" transform="translate(757,217)"/>
<path d="M0 0 C2.57112831 1.76765071 3.07659703 3.45089059 4 6.375 C1.0280615 5.25048273 -1.33440687 4.15206209 -4 2.375 C-4 1.715 -4 1.055 -4 0.375 C-2 -0.625 -2 -0.625 0 0 Z " fill="#202020" transform="translate(205,792.625)"/>
<path d="M0 0 C-0.33 1.32 -0.66 2.64 -1 4 C-0.01 4.33 0.98 4.66 2 5 C-1.34373475 4.44271087 -4.03312999 3.64826111 -7 2 C-4.35261084 0.5393715 -3.10551666 0 0 0 Z " fill="#B1B1B1" transform="translate(384,718)"/>
<path d="M0 0 C0.66 0.99 1.32 1.98 2 3 C-0.33333333 5.33333333 -2.66666667 7.66666667 -5 10 C-5 6.60406522 -4.47834052 5.93380119 -2.5 3.3125 C-2.0359375 2.68988281 -1.571875 2.06726563 -1.09375 1.42578125 C-0.7328125 0.95527344 -0.371875 0.48476563 0 0 Z " fill="#D8D8D8" transform="translate(100,707)"/>
<path d="M0 0 C2.26954631 3.40431947 2.36549949 5.16524202 2.625 9.1875 C2.69976563 10.27417969 2.77453125 11.36085938 2.8515625 12.48046875 C2.92503906 13.72763672 2.92503906 13.72763672 3 15 C1.68 14.34 0.36 13.68 -1 13 C-0.34 12.67 0.32 12.34 1 12 C0.67 8.04 0.34 4.08 0 0 Z " fill="#606060" transform="translate(884,538)"/>
<path d="M0 0 C1.875 0.3125 1.875 0.3125 4 1 C4.66 1.99 5.32 2.98 6 4 C3.36 4 0.72 4 -2 4 C-1.34 2.68 -0.68 1.36 0 0 Z " fill="#0C0C0C" transform="translate(332,477)"/>
<path d="M0 0 C0.66 0.99 1.32 1.98 2 3 C0.02 5.97 0.02 5.97 -2 9 C-2.66 8.67 -3.32 8.34 -4 8 C-2.87548273 5.0280615 -1.77706209 2.66559313 0 0 Z " fill="#D4D4D4" transform="translate(610,460)"/>
<path d="M0 0 C1.9451 2.91765 2.45276317 4.62537285 3 8 C1.02 7.34 -0.96 6.68 -3 6 C-2.34 5.67 -1.68 5.34 -1 5 C-0.34444881 2.47266765 -0.34444881 2.47266765 0 0 Z " fill="#D0D0D0" transform="translate(180,225)"/>
<path d="M0 0 C0.99 0 1.98 0 3 0 C3 1.32 3 2.64 3 4 C3.66 4.33 4.32 4.66 5 5 C4.34 5.66 3.68 6.32 3 7 C2.60235737 8.98821313 2.26224651 10.98944339 2 13 C1.67 13 1.34 13 1 13 C0.85714286 4.42857143 0.85714286 4.42857143 2 1 C1.34 0.67 0.68 0.34 0 0 Z " fill="#BEBEBE" transform="translate(251,529)"/>
<path d="M0 0 C4 4.75 4 4.75 4 7 C2.68 7 1.36 7 0 7 C-1.125 2.25 -1.125 2.25 0 0 Z " fill="#E7E7E7" transform="translate(402,516)"/>
<path d="M0 0 C0.33 0.66 0.66 1.32 1 2 C-1 5 -1 5 -3 5.8125 C-3.66 5.874375 -4.32 5.93625 -5 6 C-5.66 5.34 -6.32 4.68 -7 4 C-4.69 2.68 -2.38 1.36 0 0 Z " fill="#E3E3E3" transform="translate(813,288)"/>
<path d="M0 0 C-1.32 1.32 -2.64 2.64 -4 4 C-5.32 2.68 -6.64 1.36 -8 0 C-4.94736336 -0.98120464 -3.05263664 -0.98120464 0 0 Z " fill="#D0D0D0" transform="translate(673,793)"/>
<path d="M0 0 C0.66 0.99 1.32 1.98 2 3 C1.01 3.99 0.02 4.98 -1 6 C-2.32 5.34 -3.64 4.68 -5 4 C-4.34 3.34 -3.68 2.68 -3 2 C-2.01 2 -1.02 2 0 2 C0 1.34 0 0.68 0 0 Z " fill="#101010" transform="translate(492,770)"/>
<path d="M0 0 C1.98 1.65 3.96 3.3 6 5 C5.67 5.66 5.34 6.32 5 7 C4.01 6.67 3.02 6.34 2 6 C2 5.34 2 4.68 2 4 C1.34 4 0.68 4 0 4 C0 2.68 0 1.36 0 0 Z " fill="#DADADA" transform="translate(562,696)"/>
<path d="M0 0 C0.66 0.66 1.32 1.32 2 2 C-0.31 4.64 -2.62 7.28 -5 10 C-5.66 9.67 -6.32 9.34 -7 9 C-4.69 6.03 -2.38 3.06 0 0 Z " fill="#CBCBCB" transform="translate(417,666)"/>
<path d="M0 0 C0.66 0.33 1.32 0.66 2 1 C0.35 2.65 -1.3 4.3 -3 6 C-4.32 5.34 -5.64 4.68 -7 4 C-1.7265625 0.77734375 -1.7265625 0.77734375 0 0 Z " fill="#DDDDDD" transform="translate(499,607)"/>
<path d="M0 0 C4.455 0.99 4.455 0.99 9 2 C4.82091936 4.08954032 4.19589427 4.16552619 0 3 C0 2.01 0 1.02 0 0 Z " fill="#161616" transform="translate(483,576)"/>
<path d="M0 0 C0.66 0.99 1.32 1.98 2 3 C-3.625 7 -3.625 7 -7 7 C-4.69 4.69 -2.38 2.38 0 0 Z " fill="#2A2A2A" transform="translate(513,561)"/>
<path d="M0 0 C-0.99 0.495 -0.99 0.495 -2 1 C-1.67 1.66 -1.34 2.32 -1 3 C-1.99 3 -2.98 3 -4 3 C-4 2.34 -4 1.68 -4 1 C-6.64 1.33 -9.28 1.66 -12 2 C-7.89783794 -0.73477471 -4.73617773 -1.57872591 0 0 Z " fill="#C8C8C8" transform="translate(302,483)"/>
<path d="M0 0 C0.99 0.66 1.98 1.32 3 2 C2.67 3.65 2.34 5.3 2 7 C0.62437146 5.71034824 -0.70766393 4.37310707 -2 3 C-2 2.34 -2 1.68 -2 1 C-1.34 0.67 -0.68 0.34 0 0 Z " fill="#ECECEC" transform="translate(837,419)"/>
<path d="M0 0 C0.66 0.99 1.32 1.98 2 3 C-0.97 5.475 -0.97 5.475 -4 8 C-4.66 7.67 -5.32 7.34 -6 7 C-4.02 4.69 -2.04 2.38 0 0 Z " fill="#D7D7D7" transform="translate(646,413)"/>
<path d="M0 0 C0.82810826 3.31243305 1.09278428 5.65976579 1 9 C-0.32 9.33 -1.64 9.66 -3 10 C-2.01 6.7 -1.02 3.4 0 0 Z " fill="#CACACA" transform="translate(582,398)"/>
<path d="M0 0 C0.68359375 1.765625 0.68359375 1.765625 1 4 C-0.21484375 5.921875 -0.21484375 5.921875 -1.9375 7.75 C-2.50339844 8.36359375 -3.06929687 8.9771875 -3.65234375 9.609375 C-4.31943359 10.29773438 -4.31943359 10.29773438 -5 11 C-5 7.58678765 -4.33132534 6.60527115 -2.5 3.8125 C-2.0359375 3.09707031 -1.571875 2.38164062 -1.09375 1.64453125 C-0.7328125 1.10183594 -0.371875 0.55914062 0 0 Z " fill="#C9C9C9" transform="translate(634,301)"/>
<path d="M0 0 C0.99 0.33 1.98 0.66 3 1 C1.60804085 3.7839183 -0.15575779 3.97898997 -3 5 C-3 4.01 -3 3.02 -3 2 C-2.01 1.34 -1.02 0.68 0 0 Z " fill="#E3E3E3" transform="translate(790,787)"/>
<path d="M0 0 C0.66 0.33 1.32 0.66 2 1 C0.35 2.98 -1.3 4.96 -3 7 C-3.66 6.67 -4.32 6.34 -5 6 C-3.63016497 2.83884224 -3.0109362 2.0072908 0 0 Z " fill="#1D1D1D" transform="translate(414,753)"/>
<path d="M0 0 C2.66735273 2.48952921 4.55746343 4.63408134 6 8 C5.01 8.495 5.01 8.495 4 9 C2 8 2 8 1.3671875 6.15234375 C1.20476563 5.42144531 1.04234375 4.69054687 0.875 3.9375 C0.70742188 3.20402344 0.53984375 2.47054687 0.3671875 1.71484375 C0.24601563 1.14894531 0.12484375 0.58304688 0 0 Z " fill="#CCCCCC" transform="translate(876,703)"/>
<path d="M0 0 C0.33 0.66 0.66 1.32 1 2 C3.52733235 2.65555119 3.52733235 2.65555119 6 3 C5.67 3.99 5.34 4.98 5 6 C3.0625 5.25 3.0625 5.25 1 4 C0.25 1.875 0.25 1.875 0 0 Z " fill="#E1E1E1" transform="translate(409,676)"/>
<path d="M0 0 C0.66 0 1.32 0 2 0 C2 0.66 2 1.32 2 2 C3.2065625 2.433125 3.2065625 2.433125 4.4375 2.875 C7 4 7 4 8 6 C5.03 5.01 2.06 4.02 -1 3 C-0.67 2.01 -0.34 1.02 0 0 Z " fill="#222222" transform="translate(598,625)"/>
<path d="M0 0 C0.66 0.33 1.32 0.66 2 1 C1.360625 1.598125 0.72125 2.19625 0.0625 2.8125 C-2.20310389 4.90810337 -2.20310389 4.90810337 -3 8 C-3.66 7.67 -4.32 7.34 -5 7 C-4.67 6.34 -4.34 5.68 -4 5 C-4.66 4.67 -5.32 4.34 -6 4 C-4.02 2.68 -2.04 1.36 0 0 Z " fill="#DBDBDB" transform="translate(676,597)"/>
<path d="M0 0 C0.66 0 1.32 0 2 0 C2 1.65 2 3.3 2 5 C1.34 5 0.68 5 0 5 C-0.33 5.66 -0.66 6.32 -1 7 C-1.66 7 -2.32 7 -3 7 C-1.125 2.25 -1.125 2.25 0 0 Z " fill="#434343" transform="translate(566,574)"/>
<path d="M0 0 C0.66 0.33 1.32 0.66 2 1 C-0.31 3.31 -2.62 5.62 -5 8 C-5.66 7.67 -6.32 7.34 -7 7 C-4.66666667 4.66666667 -2.33333333 2.33333333 0 0 Z " fill="#C5C5C5" transform="translate(318,516)"/>
<path d="M0 0 C0 3 0 3 -1.3125 4.38671875 C-2.875 5.59114583 -4.4375 6.79557292 -6 8 C-6.66 7.67 -7.32 7.34 -8 7 C-5.36 4.69 -2.72 2.38 0 0 Z " fill="#282828" transform="translate(652,470)"/>
<path d="M0 0 C-0.99 0 -1.98 0 -3 0 C-3.33 1.65 -3.66 3.3 -4 5 C-5.5 3.625 -5.5 3.625 -7 2 C-7 1.34 -7 0.68 -7 0 C-3.86650268 -1.04449911 -3.01031744 -0.93423645 0 0 Z " fill="#444444" transform="translate(342,284)"/>
<path d="M0 0 C0 3 0 3 -1 6 C-1.99 6.33 -2.98 6.66 -4 7 C-4.66 6.34 -5.32 5.68 -6 5 C-4.02 3.35 -2.04 1.7 0 0 Z " fill="#2C2C2C" transform="translate(822,216)"/>
<path d="M0 0 C0.66 0.33 1.32 0.66 2 1 C1.34 2.65 0.68 4.3 0 6 C-0.99 6 -1.98 6 -3 6 C-1.125 1.125 -1.125 1.125 0 0 Z " fill="#ECECEC" transform="translate(788,808)"/>
<path d="M0 0 C0.99 0 1.98 0 3 0 C3.33 1.32 3.66 2.64 4 4 C-0.455 3.01 -0.455 3.01 -5 2 C-3.68 1.67 -2.36 1.34 -1 1 C-0.67 0.67 -0.34 0.34 0 0 Z " fill="#333333" transform="translate(616,787)"/>
<path d="M0 0 C1.32 1.32 2.64 2.64 4 4 C2.68 5.32 1.36 6.64 0 8 C-0.33 7.01 -0.66 6.02 -1 5 C-0.34 5 0.32 5 1 5 C0.67 3.35 0.34 1.7 0 0 Z " fill="#EAEAEA" transform="translate(482,768)"/>
<path d="M0 0 C-1.65 1.32 -3.3 2.64 -5 4 C-5.66 3.34 -6.32 2.68 -7 2 C-5.26578631 -1.46842738 -3.40984787 -1.13661596 0 0 Z " fill="#161616" transform="translate(400,770)"/>
<path d="M0 0 C2 3 2 3 2 6 C1.34 6 0.68 6 0 6 C-0.33 6.66 -0.66 7.32 -1 8 C-1.625 5.125 -1.625 5.125 -2 2 C-1.34 1.34 -0.68 0.68 0 0 Z " fill="#292929" transform="translate(427,601)"/>
<path d="M0 0 C1.65 1.65 3.3 3.3 5 5 C4.67 5.66 4.34 6.32 4 7 C3.01 7 2.02 7 1 7 C0.67 4.69 0.34 2.38 0 0 Z " fill="#CECECE" transform="translate(420,544)"/>
<path d="M0 0 C0.66 1.32 1.32 2.64 2 4 C0.02 5.32 -1.96 6.64 -4 8 C-2.87548273 5.0280615 -1.77706209 2.66559313 0 0 Z " fill="#CACACA" transform="translate(595,484)"/>
<path d="M0 0 C0.66 0.33 1.32 0.66 2 1 C1.34 2.65 0.68 4.3 0 6 C-1.32 5.34 -2.64 4.68 -4 4 C-3 2 -3 2 0 0 Z " fill="#151515" transform="translate(542,473)"/>
<path d="M0 0 C0.66 0.33 1.32 0.66 2 1 C0.35 2.65 -1.3 4.3 -3 6 C-4.32 5.34 -5.64 4.68 -7 4 C-1.7265625 0.77734375 -1.7265625 0.77734375 0 0 Z " fill="#2B2B2B" transform="translate(184,305)"/>
<path d="M0 0 C2.97 0.495 2.97 0.495 6 1 C6 1.99 6 2.98 6 4 C4.35 4.33 2.7 4.66 1 5 C0.67 3.35 0.34 1.7 0 0 Z " fill="#1E1E1E" transform="translate(178,231)"/>
<path d="M0 0 C0.33 0 0.66 0 1 0 C1.33 2.31 1.66 4.62 2 7 C0.68 7.33 -0.64 7.66 -2 8 C-1.125 2.25 -1.125 2.25 0 0 Z " fill="#C4C4C4" transform="translate(799,225)"/>
</svg>
